<svg id="svg" version="1.1" xmlns="http://www.w3.org/2000/svg" xmlns:xlink="http://www.w3.org/1999/xlink" width="400" height="400" viewBox="0, 0, 400,400"><g id="svgg"><path id="path0" d="M121.506 106.755 C 121.286 107.827,113.025 150.370,103.147 201.296 C 93.270 252.222,85.091 294.349,84.971 294.912 L 84.754 295.935 98.939 295.838 L 113.125 295.741 115.982 277.778 C 117.553 267.898,118.850 259.772,118.864 259.719 C 118.878 259.666,126.925 259.666,136.748 259.719 L 154.606 259.815 157.463 277.778 C 159.035 287.657,160.332 295.782,160.345 295.833 C 160.453 296.232,188.517 295.862,188.506 295.463 C 188.499 295.208,180.280 252.250,170.240 200.000 L 151.986 105.000 136.946 104.903 L 121.906 104.807 121.506 106.755 M143.650 192.407 C 147.351 215.426,150.377 234.468,150.375 234.722 C 150.371 235.084,147.335 235.185,136.438 235.185 C 123.354 235.185,122.516 235.146,122.671 234.537 C 122.761 234.181,125.906 215.023,129.658 191.964 C 133.411 168.905,136.581 150.155,136.702 150.297 C 136.823 150.439,139.950 169.389,143.650 192.407 " stroke="none" fill="#fbfbfb" fill-rule="evenodd"></path><path id="path1" d="M183.889 23.895 C 76.219 33.728,2.476 137.393,28.358 242.533 C 51.619 337.024,147.702 394.985,242.427 371.668 C 273.530 364.012,301.338 348.376,324.602 325.463 L 329.772 320.370 345.133 320.370 C 353.582 320.370,360.394 320.270,360.272 320.148 C 360.149 320.026,360.927 318.734,361.999 317.278 C 366.532 311.118,375.555 296.741,375.556 295.676 C 375.556 295.508,355.797 295.415,331.647 295.470 L 287.739 295.570 287.886 244.544 C 288.013 200.101,288.111 192.877,288.640 188.544 C 288.975 185.808,289.197 183.518,289.133 183.454 C 289.070 183.391,283.735 204.213,277.278 229.725 C 270.821 255.237,265.439 276.486,265.318 276.944 C 265.100 277.773,265.057 277.778,257.792 277.778 L 250.486 277.778 247.997 268.056 C 246.628 262.708,241.197 241.417,235.927 220.741 C 230.658 200.065,226.340 183.481,226.332 183.889 C 226.325 184.296,226.560 186.963,226.855 189.815 C 227.296 194.068,227.393 204.036,227.400 245.278 L 227.407 295.556 213.704 295.556 L 200.000 295.556 200.000 200.000 L 200.000 104.444 213.494 104.444 C 226.023 104.444,227.001 104.491,227.182 105.093 C 232.502 122.807,257.409 211.632,257.413 212.907 C 257.417 214.156,257.518 214.477,257.778 214.074 C 257.975 213.769,258.139 212.896,258.142 212.136 C 258.147 211.116,281.342 128.882,287.812 106.944 L 288.550 104.444 302.053 104.444 L 315.556 104.444 315.556 187.778 L 315.556 271.111 338.811 271.111 L 362.066 271.111 364.223 265.690 C 379.375 227.596,380.824 183.877,368.209 145.351 C 342.476 66.754,266.045 16.391,183.889 23.895 M152.222 105.167 C 152.222 105.469,187.580 289.976,188.477 294.352 L 188.799 295.926 174.478 295.926 L 160.157 295.926 157.449 278.611 C 155.959 269.088,154.656 260.921,154.552 260.463 L 154.364 259.630 136.627 259.630 C 126.871 259.630,118.889 259.730,118.889 259.853 C 118.889 259.976,117.639 267.986,116.111 277.654 C 114.583 287.322,113.333 295.388,113.333 295.579 C 113.333 295.789,107.699 295.926,99.074 295.926 C 88.164 295.926,84.815 295.821,84.815 295.478 C 84.815 294.957,121.436 105.970,121.671 105.278 C 121.867 104.701,152.222 104.591,152.222 105.167 M129.600 193.148 L 122.741 235.185 136.599 235.185 L 150.457 235.185 150.277 234.247 C 150.179 233.732,147.118 214.816,143.475 192.212 C 139.832 169.609,136.763 151.114,136.655 151.113 C 136.547 151.112,133.372 170.028,129.600 193.148 " stroke="none" fill="#2c2c2b" fill-rule="evenodd"></path><path id="path2" d="M190.440 0.399 C 58.075 6.673,-31.919 138.735,10.716 264.134 C 57.350 401.291,228.480 444.611,335.952 346.464 C 343.504 339.568,359.259 322.088,359.259 320.606 C 359.259 320.476,352.654 320.370,344.581 320.370 L 329.902 320.370 325.044 325.235 C 256.151 394.209,144.302 394.332,75.214 325.509 C 5.523 256.085,5.523 143.915,75.214 74.491 C 141.058 8.900,246.092 5.503,316.481 66.689 C 373.582 116.323,392.862 199.237,363.376 268.358 L 362.280 270.926 338.918 271.021 L 315.556 271.117 315.556 187.781 L 315.556 104.444 302.115 104.444 L 288.675 104.444 273.592 157.315 C 262.108 197.566,258.424 210.971,258.154 213.477 C 257.700 217.693,257.540 217.791,257.339 213.972 C 257.198 211.276,255.225 204.028,242.014 157.669 L 226.852 104.461 213.426 104.453 L 200.000 104.444 200.000 200.000 L 200.000 295.556 213.717 295.556 L 227.434 295.556 227.311 244.167 C 227.200 198.157,227.119 192.220,226.543 187.446 C 226.189 184.514,225.951 181.963,226.012 181.777 C 226.074 181.592,231.627 203.074,238.351 229.516 L 250.577 277.593 257.789 277.688 L 265.000 277.784 277.207 229.464 C 283.922 202.888,289.473 181.201,289.543 181.271 C 289.613 181.342,289.376 183.626,289.016 186.348 C 288.421 190.840,288.350 196.107,288.241 243.426 L 288.122 295.556 330.635 295.551 C 354.017 295.549,373.790 295.441,374.574 295.312 L 375.999 295.076 379.437 288.001 C 390.034 266.191,396.695 242.880,398.710 220.556 C 399.041 216.889,399.426 213.472,399.565 212.963 C 400.020 211.299,399.664 187.856,399.094 181.996 C 389.321 81.425,309.308 5.172,208.519 0.375 C 200.199 -0.021,199.283 -0.020,190.440 0.399 " stroke="none" fill="#84a30c" fill-rule="evenodd"></path><path id="path3" d="M189.722 0.272 C 190.690 0.349,192.273 0.349,193.241 0.272 C 194.208 0.196,193.417 0.134,191.481 0.134 C 189.546 0.134,188.755 0.196,189.722 0.272 M206.759 0.272 C 207.727 0.349,209.310 0.349,210.278 0.272 C 211.245 0.196,210.454 0.134,208.519 0.134 C 206.583 0.134,205.792 0.196,206.759 0.272 M183.796 0.636 C 184.356 0.721,185.273 0.721,185.833 0.636 C 186.394 0.551,185.935 0.481,184.815 0.481 C 183.694 0.481,183.236 0.551,183.796 0.636 M214.358 0.639 C 215.024 0.721,216.024 0.720,216.581 0.635 C 217.137 0.551,216.593 0.483,215.370 0.485 C 214.148 0.487,213.693 0.556,214.358 0.639 M179.537 1.002 C 179.995 1.090,180.745 1.090,181.204 1.002 C 181.662 0.914,181.287 0.842,180.370 0.842 C 179.454 0.842,179.079 0.914,179.537 1.002 M218.796 1.002 C 219.255 1.090,220.005 1.090,220.463 1.002 C 220.921 0.914,220.546 0.842,219.630 0.842 C 218.713 0.842,218.338 0.914,218.796 1.002 M176.208 1.373 C 176.669 1.462,177.335 1.458,177.690 1.366 C 178.044 1.273,177.667 1.200,176.852 1.205 C 176.037 1.209,175.747 1.284,176.208 1.373 M222.504 1.373 C 222.965 1.462,223.632 1.458,223.986 1.366 C 224.340 1.273,223.963 1.200,223.148 1.205 C 222.333 1.209,222.044 1.284,222.504 1.373 M173.245 1.743 C 173.706 1.832,174.372 1.829,174.727 1.736 C 175.081 1.643,174.704 1.571,173.889 1.575 C 173.074 1.579,172.784 1.655,173.245 1.743 M225.467 1.743 C 225.928 1.832,226.595 1.829,226.949 1.736 C 227.303 1.643,226.926 1.571,226.111 1.575 C 225.296 1.579,225.007 1.655,225.467 1.743 M170.463 2.107 C 170.819 2.200,171.403 2.200,171.759 2.107 C 172.116 2.014,171.824 1.938,171.111 1.938 C 170.398 1.938,170.106 2.014,170.463 2.107 M228.241 2.107 C 228.597 2.200,229.181 2.200,229.537 2.107 C 229.894 2.014,229.602 1.938,228.889 1.938 C 228.176 1.938,227.884 2.014,228.241 2.107 M157.037 4.444 C 156.304 4.679,156.265 4.741,156.852 4.741 C 157.259 4.741,158.009 4.608,158.519 4.444 C 159.252 4.210,159.290 4.148,158.704 4.148 C 158.296 4.148,157.546 4.281,157.037 4.444 M241.481 4.444 C 241.991 4.608,242.741 4.741,243.148 4.741 C 243.735 4.741,243.696 4.679,242.963 4.444 C 242.454 4.281,241.704 4.148,241.296 4.148 C 240.710 4.148,240.748 4.210,241.481 4.444 M153.704 5.185 C 152.971 5.420,152.932 5.482,153.519 5.482 C 153.926 5.482,154.676 5.348,155.185 5.185 C 155.918 4.950,155.957 4.889,155.370 4.889 C 154.963 4.889,154.213 5.022,153.704 5.185 M244.815 5.185 C 245.324 5.348,246.074 5.482,246.481 5.482 C 247.068 5.482,247.029 5.420,246.296 5.185 C 245.787 5.022,245.037 4.889,244.630 4.889 C 244.043 4.889,244.082 4.950,244.815 5.185 M147.222 6.866 C 145.762 7.371,145.759 7.375,147.037 7.160 C 148.548 6.905,150.093 6.341,149.259 6.348 C 148.954 6.351,148.037 6.584,147.222 6.866 M250.926 6.617 C 251.333 6.795,252.250 7.047,252.963 7.176 C 253.853 7.337,254.027 7.309,253.519 7.087 C 253.111 6.909,252.194 6.657,251.481 6.528 C 250.592 6.366,250.417 6.394,250.926 6.617 M143.889 7.778 C 143.422 7.978,143.354 8.096,143.704 8.096 C 144.009 8.096,144.593 7.953,145.000 7.778 C 145.467 7.577,145.535 7.459,145.185 7.459 C 144.880 7.459,144.296 7.603,143.889 7.778 M255.000 7.778 C 255.407 7.953,255.991 8.096,256.296 8.096 C 256.646 8.096,256.578 7.978,256.111 7.778 C 255.704 7.603,255.120 7.459,254.815 7.459 C 254.465 7.459,254.533 7.577,255.000 7.778 M140.185 8.889 C 139.167 9.265,138.583 9.572,138.889 9.572 C 139.194 9.572,140.278 9.265,141.296 8.889 C 142.315 8.513,142.898 8.206,142.593 8.206 C 142.287 8.206,141.204 8.513,140.185 8.889 M258.704 8.889 C 259.722 9.265,260.806 9.572,261.111 9.572 C 261.417 9.572,260.833 9.265,259.815 8.889 C 258.796 8.513,257.713 8.206,257.407 8.206 C 257.102 8.206,257.685 8.513,258.704 8.889 M129.074 12.726 C 81.352 30.828,42.071 66.790,19.752 112.811 C 18.055 116.310,16.673 119.317,16.680 119.494 C 16.687 119.670,18.243 116.648,20.138 112.778 C 42.815 66.465,81.974 30.709,129.450 12.966 C 132.299 11.902,134.699 10.965,134.784 10.886 C 135.219 10.477,133.785 10.939,129.074 12.726 M265.216 10.886 C 265.301 10.965,267.701 11.902,270.550 12.966 C 318.026 30.709,357.186 66.465,379.862 112.778 C 381.757 116.648,383.313 119.656,383.320 119.462 C 383.347 118.741,375.888 104.077,372.950 99.074 C 351.509 62.565,319.282 33.793,280.735 16.745 C 274.240 13.873,264.468 10.183,265.216 10.886 M15.949 121.017 C 14.909 123.286,12.570 129.360,12.690 129.481 C 12.761 129.551,13.676 127.493,14.722 124.907 C 16.430 120.687,17.158 118.380,15.949 121.017 M383.492 120.370 C 383.584 120.676,384.559 123.176,385.660 125.926 C 386.761 128.676,387.954 131.812,388.313 132.894 C 388.671 133.977,389.042 134.785,389.137 134.691 C 389.362 134.466,385.780 124.902,384.397 122.037 C 383.807 120.815,383.400 120.065,383.492 120.370 M11.525 132.266 C 11.097 133.535,10.810 134.637,10.887 134.715 C 10.965 134.793,11.380 133.818,11.808 132.549 C 12.237 131.280,12.524 130.178,12.446 130.100 C 12.368 130.022,11.954 130.997,11.525 132.266 M8.928 140.039 C 8.465 141.477,8.152 142.719,8.232 142.800 C 8.312 142.880,8.757 141.769,9.220 140.331 C 9.683 138.893,9.997 137.651,9.916 137.571 C 9.836 137.490,9.391 138.601,8.928 140.039 M390.028 137.613 C 390.012 137.828,390.404 139.161,390.898 140.576 C 391.392 141.991,391.809 142.972,391.824 142.757 C 391.839 142.542,391.448 141.209,390.953 139.794 C 390.459 138.380,390.043 137.398,390.028 137.613 M7.619 144.286 C 7.483 144.828,7.443 145.344,7.530 145.431 C 7.617 145.519,7.800 145.146,7.937 144.603 C 8.073 144.060,8.113 143.545,8.025 143.458 C 7.938 143.370,7.755 143.743,7.619 144.286 M391.904 143.704 C 391.904 144.009,392.047 144.593,392.222 145.000 C 392.423 145.467,392.541 145.535,392.541 145.185 C 392.541 144.880,392.397 144.296,392.222 143.889 C 392.022 143.422,391.904 143.354,391.904 143.704 M6.698 147.623 C 6.459 148.573,6.332 149.419,6.417 149.504 C 6.502 149.589,6.767 148.881,7.006 147.932 C 7.245 146.983,7.371 146.137,7.286 146.052 C 7.202 145.967,6.937 146.674,6.698 147.623 M392.824 147.037 C 392.953 147.750,393.205 148.667,393.383 149.074 C 393.606 149.583,393.634 149.408,393.472 148.519 C 393.343 147.806,393.091 146.889,392.913 146.481 C 392.691 145.973,392.663 146.147,392.824 147.037 M4.841 155.026 C 4.587 156.164,4.450 157.166,4.537 157.253 C 4.624 157.341,4.904 156.481,5.159 155.344 C 5.413 154.206,5.550 153.204,5.463 153.117 C 5.376 153.030,5.096 153.889,4.841 155.026 M394.485 153.333 C 394.470 153.639,394.691 154.722,394.974 155.741 C 395.257 156.759,395.501 157.343,395.515 157.037 C 395.530 156.731,395.309 155.648,395.026 154.630 C 394.743 153.611,394.499 153.028,394.485 153.333 M1.938 171.111 C 1.938 171.824,2.014 172.116,2.107 171.759 C 2.200 171.403,2.200 170.819,2.107 170.463 C 2.014 170.106,1.938 170.398,1.938 171.111 M397.864 171.111 C 397.864 171.824,397.940 172.116,398.033 171.759 C 398.126 171.403,398.126 170.819,398.033 170.463 C 397.940 170.106,397.864 170.398,397.864 171.111 M1.575 173.889 C 1.579 174.704,1.655 174.993,1.743 174.533 C 1.832 174.072,1.829 173.405,1.736 173.051 C 1.643 172.697,1.571 173.074,1.575 173.889 M398.234 173.704 C 398.234 174.417,398.310 174.708,398.403 174.352 C 398.497 173.995,398.497 173.412,398.403 173.056 C 398.310 172.699,398.234 172.991,398.234 173.704 M1.205 176.852 C 1.209 177.667,1.284 177.956,1.373 177.496 C 1.462 177.035,1.458 176.368,1.366 176.014 C 1.273 175.660,1.200 176.037,1.205 176.852 M398.612 176.852 C 398.616 177.667,398.692 177.956,398.780 177.496 C 398.869 177.035,398.866 176.368,398.773 176.014 C 398.680 175.660,398.608 176.037,398.612 176.852 M0.847 180.556 C 0.849 181.574,0.921 181.947,1.007 181.384 C 1.092 180.821,1.089 179.987,1.001 179.532 C 0.914 179.076,0.844 179.537,0.847 180.556 M398.995 180.556 C 398.998 181.574,399.070 181.947,399.155 181.384 C 399.240 180.821,399.238 179.987,399.150 179.532 C 399.062 179.076,398.992 179.537,398.995 180.556 M0.485 185.000 C 0.487 186.222,0.556 186.678,0.639 186.012 C 0.721 185.346,0.720 184.346,0.635 183.790 C 0.551 183.233,0.483 183.778,0.485 185.000 M399.374 185.000 C 399.376 186.222,399.445 186.678,399.528 186.012 C 399.610 185.346,399.608 184.346,399.524 183.790 C 399.439 183.233,399.372 183.778,399.374 185.000 M0.134 191.481 C 0.134 193.417,0.196 194.208,0.272 193.241 C 0.349 192.273,0.349 190.690,0.272 189.722 C 0.196 188.755,0.134 189.546,0.134 191.481 M399.763 191.481 C 399.763 193.417,399.826 194.208,399.902 193.241 C 399.978 192.273,399.978 190.690,399.902 189.722 C 399.826 188.755,399.763 189.546,399.763 191.481 M0.131 208.704 C 0.130 210.537,0.193 211.334,0.271 210.474 C 0.348 209.615,0.349 208.115,0.273 207.141 C 0.196 206.167,0.133 206.870,0.131 208.704 M399.761 208.704 C 399.760 210.537,399.823 211.334,399.900 210.474 C 399.978 209.615,399.979 208.115,399.902 207.141 C 399.826 206.167,399.762 206.870,399.761 208.704 M0.481 215.185 C 0.481 216.306,0.551 216.764,0.636 216.204 C 0.721 215.644,0.721 214.727,0.636 214.167 C 0.551 213.606,0.481 214.065,0.481 215.185 M399.370 215.185 C 399.370 216.306,399.440 216.764,399.525 216.204 C 399.609 215.644,399.609 214.727,399.525 214.167 C 399.440 213.606,399.370 214.065,399.370 215.185 M0.842 219.630 C 0.842 220.546,0.914 220.921,1.002 220.463 C 1.090 220.005,1.090 219.255,1.002 218.796 C 0.914 218.338,0.842 218.713,0.842 219.630 M398.990 219.630 C 398.990 220.546,399.062 220.921,399.150 220.463 C 399.239 220.005,399.239 219.255,399.150 218.796 C 399.062 218.338,398.990 218.713,398.990 219.630 M1.205 223.148 C 1.209 223.963,1.284 224.253,1.373 223.792 C 1.462 223.331,1.458 222.665,1.366 222.310 C 1.273 221.956,1.200 222.333,1.205 223.148 M398.612 223.148 C 398.616 223.963,398.692 224.253,398.780 223.792 C 398.869 223.331,398.866 222.665,398.773 222.310 C 398.680 221.956,398.608 222.333,398.612 223.148 M1.567 226.296 C 1.567 227.009,1.644 227.301,1.737 226.944 C 1.830 226.588,1.830 226.005,1.737 225.648 C 1.644 225.292,1.567 225.583,1.567 226.296 M398.234 226.296 C 398.234 227.009,398.310 227.301,398.403 226.944 C 398.497 226.588,398.497 226.005,398.403 225.648 C 398.310 225.292,398.234 225.583,398.234 226.296 M1.938 228.889 C 1.938 229.602,2.014 229.894,2.107 229.537 C 2.200 229.181,2.200 228.597,2.107 228.241 C 2.014 227.884,1.938 228.176,1.938 228.889 M397.864 228.889 C 397.864 229.602,397.940 229.894,398.033 229.537 C 398.126 229.181,398.126 228.597,398.033 228.241 C 397.940 227.884,397.864 228.176,397.864 228.889 M4.485 242.963 C 4.470 243.269,4.691 244.352,4.974 245.370 C 5.257 246.389,5.501 246.972,5.515 246.667 C 5.530 246.361,5.309 245.278,5.026 244.259 C 4.743 243.241,4.499 242.657,4.485 242.963 M394.841 244.656 C 394.587 245.794,394.450 246.796,394.537 246.883 C 394.624 246.970,394.904 246.111,395.159 244.974 C 395.413 243.836,395.550 242.834,395.463 242.747 C 395.376 242.659,395.096 243.519,394.841 244.656 M6.528 251.481 C 6.657 252.194,6.909 253.111,7.087 253.519 C 7.309 254.027,7.337 253.853,7.176 252.963 C 7.047 252.250,6.795 251.333,6.617 250.926 C 6.394 250.417,6.366 250.592,6.528 251.481 M392.804 252.804 C 392.668 253.347,392.628 253.863,392.715 253.950 C 392.803 254.037,392.985 253.664,393.122 253.122 C 393.258 252.579,393.298 252.063,393.211 251.976 C 393.123 251.889,392.940 252.261,392.804 252.804 M7.459 254.815 C 7.459 255.120,7.603 255.704,7.778 256.111 C 7.978 256.578,8.096 256.646,8.096 256.296 C 8.096 255.991,7.953 255.407,7.778 255.000 C 7.577 254.533,7.459 254.465,7.459 254.815 M392.063 255.397 C 391.927 255.940,391.887 256.455,391.975 256.542 C 392.062 256.630,392.245 256.257,392.381 255.714 C 392.517 255.172,392.557 254.656,392.470 254.569 C 392.383 254.481,392.200 254.854,392.063 255.397 M8.206 257.407 C 8.206 257.713,8.513 258.796,8.889 259.815 C 9.265 260.833,9.572 261.417,9.572 261.111 C 9.572 260.806,9.265 259.722,8.889 258.704 C 8.513 257.685,8.206 257.102,8.206 257.407 M390.963 259.111 C 390.605 260.247,390.379 261.243,390.460 261.324 C 390.542 261.406,390.901 260.543,391.259 259.407 C 391.617 258.272,391.844 257.276,391.762 257.194 C 391.681 257.113,391.321 257.975,390.963 259.111 M10.832 265.648 C 10.926 265.903,11.294 266.997,11.650 268.080 C 12.006 269.162,12.363 269.983,12.443 269.903 C 12.630 269.715,11.103 265.185,10.852 265.185 C 10.747 265.185,10.738 265.394,10.832 265.648 M387.772 268.603 C 387.098 270.492,385.830 273.779,384.952 275.907 C 384.075 278.036,383.416 279.836,383.488 279.908 C 383.560 279.980,384.163 278.738,384.827 277.149 C 386.656 272.777,389.317 265.490,389.147 265.320 C 389.064 265.237,388.445 266.714,387.772 268.603 M12.593 270.486 C 12.593 270.911,15.587 278.258,16.160 279.237 C 16.888 280.484,16.683 279.894,14.621 274.815 C 12.973 270.758,12.593 269.946,12.593 270.486 M16.680 280.506 C 16.673 280.683,18.055 283.690,19.752 287.189 C 37.072 322.903,64.862 352.943,99.074 372.935 C 104.165 375.909,115.591 381.860,116.181 381.844 C 116.346 381.839,113.315 380.201,109.444 378.204 C 69.888 357.792,39.566 326.901,20.138 287.222 C 18.243 283.352,16.687 280.330,16.680 280.506 M382.474 281.684 C 381.604 283.508,381.726 283.819,382.636 282.095 C 383.049 281.312,383.321 280.605,383.241 280.525 C 383.161 280.445,382.816 280.967,382.474 281.684 M378.784 289.461 C 377.214 292.609,376.011 295.185,376.110 295.185 C 376.355 295.185,381.931 284.029,381.767 283.866 C 381.697 283.795,380.354 286.313,378.784 289.461 M356.069 324.907 C 340.709 344.055,320.950 361.067,300.278 372.944 C 295.901 375.459,293.963 376.768,296.755 375.325 C 317.112 364.798,342.241 343.388,357.711 323.390 C 361.293 318.761,360.163 319.804,356.069 324.907 M289.259 378.889 C 286.102 380.497,283.646 381.822,283.801 381.832 C 284.194 381.860,295.185 376.334,295.185 376.109 C 295.185 375.855,295.585 375.667,289.259 378.889 M117.778 382.593 C 118.491 382.983,119.241 383.302,119.444 383.302 C 119.648 383.302,119.231 382.983,118.519 382.593 C 117.806 382.202,117.056 381.883,116.852 381.883 C 116.648 381.883,117.065 382.202,117.778 382.593 M281.481 382.593 C 280.769 382.983,280.352 383.302,280.556 383.302 C 280.759 383.302,281.509 382.983,282.222 382.593 C 282.935 382.202,283.352 381.883,283.148 381.883 C 282.944 381.883,282.194 382.202,281.481 382.593 M120.763 383.846 C 122.062 384.597,129.319 387.471,129.488 387.302 C 129.564 387.227,127.588 386.345,125.098 385.342 C 119.889 383.243,119.467 383.098,120.763 383.846 M274.915 385.300 C 272.424 386.332,270.445 387.235,270.517 387.307 C 270.669 387.459,277.832 384.643,279.237 383.879 C 281.032 382.903,279.434 383.428,274.915 385.300 M130.926 387.921 C 131.537 388.199,132.454 388.529,132.963 388.654 C 133.707 388.837,133.670 388.782,132.778 388.375 C 132.167 388.097,131.250 387.767,130.741 387.642 C 129.997 387.460,130.034 387.515,130.926 387.921 M267.847 388.031 C 266.969 388.341,266.315 388.661,266.396 388.741 C 266.565 388.910,270.000 387.782,270.000 387.558 C 270.000 387.326,269.579 387.418,267.847 388.031 M140.741 391.296 C 141.454 391.571,142.287 391.795,142.593 391.795 C 142.898 391.795,142.565 391.571,141.852 391.296 C 141.139 391.022,140.306 390.797,140.000 390.797 C 139.694 390.797,140.028 391.022,140.741 391.296 M258.148 391.296 C 257.435 391.571,257.102 391.795,257.407 391.795 C 257.713 391.795,258.546 391.571,259.259 391.296 C 259.972 391.022,260.306 390.797,260.000 390.797 C 259.694 390.797,258.861 391.022,258.148 391.296 M143.889 392.222 C 144.296 392.397,144.880 392.541,145.185 392.541 C 145.535 392.541,145.467 392.423,145.000 392.222 C 144.593 392.047,144.009 391.904,143.704 391.904 C 143.354 391.904,143.422 392.022,143.889 392.222 M255.000 392.222 C 254.533 392.423,254.465 392.541,254.815 392.541 C 255.120 392.541,255.704 392.397,256.111 392.222 C 256.578 392.022,256.646 391.904,256.296 391.904 C 255.991 391.904,255.407 392.047,255.000 392.222 M146.481 392.963 C 146.889 393.138,147.472 393.281,147.778 393.281 C 148.128 393.281,148.059 393.164,147.593 392.963 C 147.185 392.788,146.602 392.645,146.296 392.645 C 145.946 392.645,146.015 392.762,146.481 392.963 M252.407 392.963 C 251.941 393.164,251.872 393.281,252.222 393.281 C 252.528 393.281,253.111 393.138,253.519 392.963 C 253.985 392.762,254.054 392.645,253.704 392.645 C 253.398 392.645,252.815 392.788,252.407 392.963 M170.463 398.033 C 170.819 398.126,171.403 398.126,171.759 398.033 C 172.116 397.940,171.824 397.864,171.111 397.864 C 170.398 397.864,170.106 397.940,170.463 398.033 M228.241 398.033 C 228.597 398.126,229.181 398.126,229.537 398.033 C 229.894 397.940,229.602 397.864,228.889 397.864 C 228.176 397.864,227.884 397.940,228.241 398.033 M173.056 398.403 C 173.412 398.497,173.995 398.497,174.352 398.403 C 174.708 398.310,174.417 398.234,173.704 398.234 C 172.991 398.234,172.699 398.310,173.056 398.403 M225.648 398.403 C 226.005 398.497,226.588 398.497,226.944 398.403 C 227.301 398.310,227.009 398.234,226.296 398.234 C 225.583 398.234,225.292 398.310,225.648 398.403 M176.208 398.780 C 176.669 398.869,177.335 398.866,177.690 398.773 C 178.044 398.680,177.667 398.608,176.852 398.612 C 176.037 398.616,175.747 398.692,176.208 398.780 M222.504 398.780 C 222.965 398.869,223.632 398.866,223.986 398.773 C 224.340 398.680,223.963 398.608,223.148 398.612 C 222.333 398.616,222.044 398.692,222.504 398.780 M179.537 399.150 C 179.995 399.239,180.745 399.239,181.204 399.150 C 181.662 399.062,181.287 398.990,180.370 398.990 C 179.454 398.990,179.079 399.062,179.537 399.150 M218.796 399.150 C 219.255 399.239,220.005 399.239,220.463 399.150 C 220.921 399.062,220.546 398.990,219.630 398.990 C 218.713 398.990,218.338 399.062,218.796 399.150 M183.796 399.525 C 184.356 399.609,185.273 399.609,185.833 399.525 C 186.394 399.440,185.935 399.370,184.815 399.370 C 183.694 399.370,183.236 399.440,183.796 399.525 M214.358 399.528 C 215.024 399.610,216.024 399.608,216.581 399.524 C 217.137 399.439,216.593 399.372,215.370 399.374 C 214.148 399.376,213.693 399.445,214.358 399.528 M189.733 399.902 C 190.707 399.979,192.207 399.978,193.067 399.900 C 193.926 399.823,193.130 399.760,191.296 399.761 C 189.463 399.762,188.760 399.826,189.733 399.902 M207.141 399.902 C 208.115 399.979,209.615 399.978,210.474 399.900 C 211.334 399.823,210.537 399.760,208.704 399.761 C 206.870 399.762,206.167 399.826,207.141 399.902 " stroke="none" fill="#ae761c" fill-rule="evenodd"></path><path id="path4" d="M195.463 23.240 C 197.958 23.304,202.042 23.304,204.537 23.240 C 207.032 23.176,204.991 23.123,200.000 23.123 C 195.009 23.123,192.968 23.176,195.463 23.240 M186.394 23.599 C 186.957 23.684,187.790 23.682,188.246 23.594 C 188.701 23.506,188.241 23.436,187.222 23.439 C 186.204 23.442,185.831 23.514,186.394 23.599 M211.950 23.599 C 212.513 23.684,213.346 23.682,213.801 23.594 C 214.257 23.506,213.796 23.436,212.778 23.439 C 211.759 23.442,211.387 23.514,211.950 23.599 M182.134 23.966 C 182.595 24.054,183.261 24.051,183.615 23.958 C 183.970 23.865,183.593 23.793,182.778 23.797 C 181.963 23.801,181.673 23.877,182.134 23.966 M216.578 23.966 C 217.039 24.054,217.706 24.051,218.060 23.958 C 218.414 23.865,218.037 23.793,217.222 23.797 C 216.407 23.801,216.118 23.877,216.578 23.966 M80.171 69.722 L 78.333 71.667 80.278 69.829 C 82.085 68.121,82.392 67.778,82.116 67.778 C 82.057 67.778,81.182 68.653,80.171 69.722 M319.444 69.630 C 320.448 70.648,321.352 71.481,321.454 71.481 C 321.555 71.481,320.818 70.648,319.815 69.630 C 318.812 68.611,317.907 67.778,317.806 67.778 C 317.704 67.778,318.441 68.611,319.444 69.630 M74.606 74.907 L 73.519 76.111 74.722 75.023 C 75.844 74.009,76.096 73.704,75.810 73.704 C 75.746 73.704,75.205 74.245,74.606 74.907 M324.074 73.820 C 324.074 73.883,324.616 74.425,325.278 75.023 L 326.481 76.111 325.394 74.907 C 324.380 73.785,324.074 73.533,324.074 73.820 M69.630 80.185 C 68.730 81.102,68.077 81.852,68.179 81.852 C 68.281 81.852,69.100 81.102,70.000 80.185 C 70.900 79.269,71.552 78.519,71.451 78.519 C 71.349 78.519,70.529 79.269,69.630 80.185 M329.985 80.093 C 330.893 81.060,331.684 81.852,331.744 81.852 C 332.022 81.852,331.728 81.519,330.093 79.985 L 328.333 78.333 329.985 80.093 M66.458 83.796 L 65.370 85.000 66.574 83.912 C 67.696 82.898,67.948 82.593,67.662 82.593 C 67.598 82.593,67.056 83.134,66.458 83.796 M332.222 82.708 C 332.222 82.772,332.764 83.314,333.426 83.912 L 334.630 85.000 333.542 83.796 C 332.528 82.674,332.222 82.422,332.222 82.708 M24.160 179.259 C 24.160 179.972,24.236 180.264,24.329 179.907 C 24.423 179.551,24.423 178.968,24.329 178.611 C 24.236 178.255,24.160 178.546,24.160 179.259 M375.641 179.259 C 375.641 179.972,375.718 180.264,375.811 179.907 C 375.904 179.551,375.904 178.968,375.811 178.611 C 375.718 178.255,375.641 178.546,375.641 179.259 M289.193 182.037 C 288.955 183.147,289.070 183.646,289.472 183.244 C 289.589 183.127,289.628 182.557,289.559 181.978 L 289.432 180.926 289.193 182.037 M23.797 182.778 C 23.801 183.593,23.877 183.882,23.966 183.422 C 24.054 182.961,24.051 182.294,23.958 181.940 C 23.865 181.586,23.793 181.963,23.797 182.778 M376.019 182.778 C 376.023 183.593,376.099 183.882,376.188 183.422 C 376.276 182.961,376.273 182.294,376.180 181.940 C 376.088 181.586,376.015 181.963,376.019 182.778 M23.439 187.222 C 23.442 188.241,23.514 188.613,23.599 188.050 C 23.684 187.487,23.682 186.654,23.594 186.199 C 23.506 185.743,23.436 186.204,23.439 187.222 M376.402 187.222 C 376.405 188.241,376.477 188.613,376.562 188.050 C 376.647 187.487,376.645 186.654,376.557 186.199 C 376.469 185.743,376.399 186.204,376.402 187.222 M23.122 200.000 C 23.122 204.787,23.175 206.745,23.240 204.352 C 23.304 201.958,23.304 198.042,23.240 195.648 C 23.175 193.255,23.122 195.213,23.122 200.000 M376.826 200.000 C 376.826 204.787,376.879 206.745,376.943 204.352 C 377.008 201.958,377.008 198.042,376.943 195.648 C 376.879 193.255,376.826 195.213,376.826 200.000 M288.234 193.704 C 288.234 194.417,288.310 194.708,288.403 194.352 C 288.497 193.995,288.497 193.412,288.403 193.056 C 288.310 192.699,288.234 192.991,288.234 193.704 M227.130 195.000 C 227.135 195.815,227.210 196.105,227.299 195.644 C 227.388 195.183,227.384 194.516,227.292 194.162 C 227.199 193.808,227.126 194.185,227.130 195.000 M287.958 247.222 C 287.958 273.907,288.002 284.769,288.056 271.360 C 288.109 257.951,288.109 236.117,288.055 222.842 C 288.002 209.566,287.958 220.537,287.958 247.222 M23.439 212.778 C 23.442 213.796,23.514 214.169,23.599 213.606 C 23.684 213.043,23.682 212.210,23.594 211.754 C 23.506 211.299,23.436 211.759,23.439 212.778 M376.402 212.778 C 376.405 213.796,376.477 214.169,376.562 213.606 C 376.647 213.043,376.645 212.210,376.557 211.754 C 376.469 211.299,376.399 211.759,376.402 212.778 M257.674 214.197 C 257.527 214.570,257.422 215.403,257.441 216.049 L 257.474 217.222 257.831 215.982 C 258.251 214.523,258.122 213.058,257.674 214.197 M23.797 217.222 C 23.801 218.037,23.877 218.327,23.966 217.866 C 24.054 217.405,24.051 216.739,23.958 216.385 C 23.865 216.030,23.793 216.407,23.797 217.222 M376.019 217.222 C 376.023 218.037,376.099 218.327,376.188 217.866 C 376.276 217.405,376.273 216.739,376.180 216.385 C 376.088 216.030,376.015 216.407,376.019 217.222 M24.160 220.741 C 24.160 221.454,24.236 221.745,24.329 221.389 C 24.423 221.032,24.423 220.449,24.329 220.093 C 24.236 219.736,24.160 220.028,24.160 220.741 M375.641 220.741 C 375.641 221.454,375.718 221.745,375.811 221.389 C 375.904 221.032,375.904 220.449,375.811 220.093 C 375.718 219.736,375.641 220.028,375.641 220.741 M65.556 315.301 C 65.556 315.365,66.097 315.906,66.759 316.505 L 67.963 317.593 66.875 316.389 C 65.861 315.267,65.556 315.015,65.556 315.301 M69.614 319.722 C 70.522 320.690,71.314 321.481,71.373 321.481 C 71.652 321.481,71.357 321.149,69.722 319.614 L 67.963 317.963 69.614 319.722 M73.704 324.190 C 73.704 324.254,74.245 324.795,74.907 325.394 L 76.111 326.481 75.023 325.278 C 74.009 324.156,73.704 323.904,73.704 324.190 M324.977 325.278 L 323.889 326.481 325.093 325.394 C 325.755 324.795,326.296 324.254,326.296 324.190 C 326.296 323.904,325.991 324.156,324.977 325.278 M80.185 330.370 C 81.188 331.389,82.093 332.222,82.194 332.222 C 82.296 332.222,81.559 331.389,80.556 330.370 C 79.552 329.352,78.648 328.519,78.546 328.519 C 78.445 328.519,79.182 329.352,80.185 330.370 M319.431 330.463 L 317.593 332.407 319.537 330.569 C 320.606 329.559,321.481 328.684,321.481 328.625 C 321.481 328.349,321.138 328.656,319.431 330.463 M181.944 376.181 C 182.301 376.274,182.884 376.274,183.241 376.181 C 183.597 376.088,183.306 376.012,182.593 376.012 C 181.880 376.012,181.588 376.088,181.944 376.181 M216.759 376.181 C 217.116 376.274,217.699 376.274,218.056 376.181 C 218.412 376.088,218.120 376.012,217.407 376.012 C 216.694 376.012,216.403 376.088,216.759 376.181 M186.394 376.562 C 186.957 376.647,187.790 376.645,188.246 376.557 C 188.701 376.469,188.241 376.399,187.222 376.402 C 186.204 376.405,185.831 376.477,186.394 376.562 M211.950 376.562 C 212.513 376.647,213.346 376.645,213.801 376.557 C 214.257 376.469,213.796 376.399,212.778 376.402 C 211.759 376.405,211.387 376.477,211.950 376.562 M195.463 376.943 C 197.958 377.007,202.042 377.007,204.537 376.943 C 207.032 376.879,204.991 376.827,200.000 376.827 C 195.009 376.827,192.968 376.879,195.463 376.943 " stroke="none" fill="#867711" fill-rule="evenodd"></path></g></svg>