<svg id="svg" version="1.1" xmlns="http://www.w3.org/2000/svg" xmlns:xlink="http://www.w3.org/1999/xlink" width="400" height="72" viewBox="0, 0, 400,72"><g id="svgg"><path id="path0" d="M46.333 4.273 C 21.309 6.561,8.456 34.922,23.344 55.001 C 34.810 70.465,57.333 72.179,71.250 58.648 L 72.250 57.675 74.990 57.629 L 77.730 57.583 78.542 56.417 C 79.337 55.274,80.500 53.388,80.500 53.241 C 80.500 53.200,76.933 53.167,72.573 53.167 L 64.645 53.167 64.698 43.350 L 64.750 33.534 63.483 38.559 C 62.785 41.322,61.848 45.030,61.400 46.798 L 60.585 50.012 59.261 49.964 L 57.937 49.917 57.549 48.417 C 57.336 47.592,56.411 43.954,55.493 40.333 C 54.575 36.712,53.808 33.693,53.787 33.624 C 53.767 33.555,53.773 37.924,53.801 43.333 L 53.853 53.167 51.343 53.167 L 48.833 53.167 48.833 35.996 L 48.833 18.824 51.286 18.871 L 53.738 18.917 56.196 27.500 C 57.549 32.221,58.803 36.646,58.984 37.333 C 59.166 38.021,59.323 38.396,59.335 38.167 C 59.347 37.938,60.573 33.512,62.059 28.333 L 64.761 18.917 67.214 18.871 L 69.667 18.824 69.667 33.832 L 69.667 48.839 73.875 48.795 L 78.083 48.750 78.645 47.250 C 86.788 25.483,69.267 2.177,46.333 4.273 M117.000 11.386 C 117.000 11.417,116.617 12.449,116.149 13.679 C 115.681 14.910,115.088 16.479,114.831 17.167 C 114.574 17.854,114.138 19.017,113.863 19.750 C 113.588 20.483,113.125 21.721,112.833 22.500 C 112.158 24.304,111.432 26.242,110.833 27.833 C 110.164 29.614,109.442 31.540,108.865 33.083 C 108.272 34.671,103.426 47.540,102.099 51.051 C 101.586 52.408,101.167 53.553,101.167 53.594 C 101.167 53.636,103.915 53.651,107.273 53.627 L 113.380 53.583 113.762 52.333 C 113.971 51.646,114.388 50.277,114.686 49.292 L 115.230 47.500 118.615 47.500 L 122.000 47.500 122.000 50.583 L 122.000 53.667 128.016 53.667 L 134.031 53.667 133.925 52.042 C 133.866 51.148,133.749 49.442,133.665 48.250 C 133.580 47.058,133.431 44.958,133.334 43.583 C 133.236 42.208,133.086 40.108,132.999 38.917 C 132.912 37.725,132.763 35.587,132.667 34.167 C 132.571 32.746,132.421 30.608,132.334 29.417 C 132.166 27.108,131.938 23.879,131.673 20.083 C 131.583 18.800,131.431 16.625,131.334 15.250 C 131.237 13.875,131.141 12.450,131.120 12.083 L 131.083 11.417 124.042 11.373 C 120.169 11.349,117.000 11.355,117.000 11.386 M40.479 19.958 C 40.780 21.625,45.943 48.578,46.422 50.985 C 46.648 52.123,46.833 53.116,46.833 53.193 C 46.833 53.270,45.671 53.333,44.250 53.333 C 42.829 53.333,41.667 53.302,41.667 53.265 C 41.667 53.125,40.825 47.734,40.733 47.288 L 40.639 46.826 37.447 46.871 L 34.254 46.917 33.754 50.125 L 33.254 53.333 30.710 53.333 C 27.881 53.333,28.060 53.429,28.324 52.064 C 28.411 51.616,29.457 46.225,30.649 40.083 C 31.841 33.942,33.236 26.742,33.748 24.083 C 34.260 21.425,34.712 19.156,34.751 19.042 C 34.805 18.886,35.518 18.833,37.549 18.833 L 40.276 18.833 40.479 19.958 M145.482 23.408 C 141.854 24.409,138.444 28.781,137.002 34.280 C 135.595 39.651,135.750 45.956,137.360 48.820 C 139.695 52.971,145.224 53.448,149.009 49.825 L 150.009 48.868 149.913 49.475 C 149.861 49.810,149.746 50.552,149.659 51.125 C 149.251 53.800,149.094 54.478,148.690 55.315 C 147.462 57.859,143.833 57.680,143.833 55.075 L 143.833 54.500 139.227 54.500 L 134.621 54.500 134.706 56.458 C 134.963 62.329,138.377 64.534,146.833 64.288 C 156.315 64.012,158.596 61.542,160.492 49.500 C 160.687 48.262,160.990 46.350,161.167 45.250 C 161.343 44.150,161.603 42.519,161.744 41.625 C 161.885 40.731,162.115 39.269,162.256 38.375 C 162.397 37.481,162.660 35.831,162.840 34.708 C 163.019 33.585,163.320 31.710,163.507 30.542 C 163.694 29.373,163.994 27.539,164.173 26.465 C 164.353 25.392,164.500 24.361,164.500 24.174 C 164.500 23.838,164.424 23.833,159.367 23.833 L 154.233 23.833 154.018 25.125 C 153.899 25.835,153.791 26.469,153.776 26.532 C 153.762 26.596,153.412 26.227,153.000 25.712 C 151.225 23.495,148.355 22.616,145.482 23.408 M185.083 23.412 C 182.864 23.968,180.905 25.096,179.188 26.809 C 178.603 27.392,178.166 27.803,178.215 27.723 C 178.264 27.643,178.384 27.017,178.480 26.331 C 178.576 25.645,178.704 24.840,178.765 24.542 L 178.875 24.000 173.722 24.000 L 168.570 24.000 168.357 25.458 C 168.240 26.260,168.076 27.329,167.993 27.833 C 167.909 28.337,167.689 29.706,167.504 30.875 C 167.318 32.044,167.014 33.956,166.828 35.125 C 166.493 37.231,166.328 38.283,165.994 40.458 C 165.898 41.077,165.751 41.996,165.667 42.500 C 165.582 43.004,165.437 43.904,165.345 44.500 C 165.252 45.096,165.027 46.521,164.844 47.667 C 164.661 48.813,164.390 50.538,164.243 51.500 C 164.096 52.462,163.945 53.344,163.909 53.458 C 163.858 53.622,165.017 53.667,169.327 53.667 C 174.404 53.667,174.818 53.645,174.902 53.375 C 174.952 53.215,175.064 52.596,175.151 52.000 C 175.402 50.288,175.611 48.923,176.491 43.250 C 177.675 35.629,178.843 34.109,183.807 33.734 C 185.186 33.630,185.346 33.583,185.406 33.268 C 185.443 33.075,185.553 32.392,185.652 31.750 C 186.218 28.053,186.800 24.387,186.941 23.625 C 187.041 23.088,186.586 23.036,185.083 23.412 M197.404 23.423 C 190.415 24.957,186.173 31.720,186.168 41.333 C 186.163 50.136,190.250 54.413,198.667 54.416 C 204.080 54.418,207.267 52.757,210.097 48.462 C 213.571 43.188,214.292 33.738,211.613 28.583 C 209.481 24.480,203.115 22.168,197.404 23.423 M122.369 31.375 L 122.291 38.833 120.062 38.833 C 117.669 38.833,117.639 38.821,117.991 37.966 C 118.078 37.756,118.386 36.796,118.675 35.833 C 119.170 34.184,119.426 33.360,120.636 29.500 C 121.124 27.943,122.110 24.709,122.278 24.112 C 122.441 23.534,122.446 23.947,122.369 31.375 M37.026 29.694 C 36.817 31.008,36.276 34.343,35.823 37.105 C 35.370 39.867,35.000 42.173,35.000 42.230 C 35.000 42.287,36.113 42.333,37.474 42.333 L 39.948 42.333 39.485 39.542 C 39.231 38.006,38.713 34.800,38.334 32.417 C 37.431 26.739,37.481 26.842,37.026 29.694 M151.629 32.167 C 153.237 33.665,152.058 41.492,149.959 43.259 C 147.017 45.734,145.869 39.080,148.344 33.894 C 149.226 32.046,150.679 31.282,151.629 32.167 M201.658 32.633 C 203.412 34.386,202.036 43.172,199.723 44.991 C 197.780 46.520,196.628 44.541,197.012 40.333 C 197.539 34.568,199.817 30.791,201.658 32.633 " stroke="none" fill="#2c2c2b" fill-rule="evenodd"></path><path id="path1" d="M34.752 19.204 C 34.703 19.413,34.322 21.346,33.906 23.500 C 33.144 27.451,29.142 48.089,28.509 51.333 C 28.321 52.296,28.167 53.140,28.167 53.208 C 28.166 53.511,33.140 53.347,33.229 53.042 C 33.276 52.881,33.508 51.475,33.744 49.917 C 33.981 48.358,34.208 46.990,34.249 46.875 C 34.304 46.718,35.107 46.667,37.487 46.667 L 40.652 46.667 40.751 47.208 C 40.806 47.506,41.054 48.987,41.301 50.500 L 41.750 53.250 44.296 53.296 L 46.842 53.342 46.756 52.963 C 46.709 52.754,45.990 49.021,45.159 44.667 C 44.328 40.313,43.423 35.587,43.148 34.167 C 42.873 32.746,42.101 28.733,41.433 25.250 L 40.217 18.917 37.529 18.871 C 34.854 18.825,34.841 18.827,34.752 19.204 M38.070 30.597 C 38.384 32.515,38.910 35.771,39.239 37.833 C 39.568 39.896,39.875 41.752,39.922 41.958 L 40.006 42.333 37.503 42.333 C 35.440 42.333,35.000 42.291,35.000 42.094 C 35.000 41.963,35.525 38.658,36.167 34.750 C 36.808 30.842,37.333 27.487,37.333 27.295 C 37.333 26.431,37.541 27.360,38.070 30.597 " stroke="none" fill="#fbfbfb" fill-rule="evenodd"></path><path id="path2" d="M46.486 0.066 C 46.448 0.102,45.892 0.172,45.250 0.222 C 25.922 1.716,10.739 20.531,13.150 40.000 C 13.459 42.489,13.465 42.527,13.913 44.384 C 17.155 57.840,28.624 68.913,41.750 71.259 C 42.619 71.414,44.309 71.689,44.833 71.759 C 49.604 72.403,56.354 71.569,61.333 69.719 C 67.362 67.479,74.137 62.512,77.257 58.042 L 77.519 57.667 74.879 57.667 L 72.240 57.667 71.245 58.680 C 58.494 71.669,36.373 70.693,24.561 56.619 C 10.918 40.365,16.572 15.378,35.808 6.912 C 62.239 -4.720,89.054 21.387,78.310 48.292 L 78.094 48.833 73.880 48.833 L 69.667 48.833 69.667 33.833 L 69.667 18.833 67.261 18.833 C 65.115 18.833,64.846 18.865,64.769 19.125 C 63.822 22.304,59.474 37.813,59.361 38.417 C 59.232 39.103,59.201 39.154,59.185 38.705 C 59.172 38.311,55.171 23.948,53.731 19.125 C 53.654 18.865,53.385 18.833,51.239 18.833 L 48.833 18.833 48.833 36.000 L 48.833 53.167 51.346 53.167 L 53.859 53.167 53.777 43.542 C 53.731 38.248,53.641 33.617,53.577 33.250 C 53.265 31.474,53.801 33.394,55.576 40.417 C 56.642 44.633,57.580 48.308,57.659 48.583 C 57.738 48.858,57.849 49.290,57.905 49.542 C 58.034 50.125,60.391 50.273,60.570 49.708 C 60.663 49.412,61.305 46.895,63.575 37.917 C 64.270 35.167,64.857 32.860,64.878 32.791 C 64.899 32.722,64.894 37.278,64.867 42.916 L 64.817 53.167 72.669 53.167 L 80.522 53.167 81.363 51.375 C 91.259 30.291,78.837 5.413,56.083 0.747 C 53.411 0.199,46.837 -0.267,46.486 0.066 M315.666 7.542 C 315.665 7.565,315.589 8.033,315.496 8.583 C 315.404 9.133,315.287 9.846,315.238 10.167 C 315.188 10.487,314.892 12.325,314.579 14.250 C 314.267 16.175,313.970 18.087,313.920 18.500 C 313.837 19.186,313.727 19.874,313.559 20.750 C 313.429 21.427,312.974 24.269,312.904 24.833 C 312.864 25.154,312.761 25.792,312.675 26.250 C 312.588 26.708,312.478 27.383,312.430 27.750 C 312.382 28.117,312.312 28.567,312.274 28.750 C 312.195 29.136,312.038 30.128,311.905 31.083 C 311.854 31.450,311.632 32.837,311.411 34.167 C 311.190 35.496,310.965 36.883,310.910 37.250 C 310.773 38.178,310.053 42.673,309.817 44.083 C 309.709 44.725,309.602 45.438,309.579 45.667 C 309.556 45.896,309.337 47.283,309.092 48.750 C 308.847 50.217,308.620 51.604,308.587 51.833 C 308.554 52.063,308.477 52.569,308.415 52.958 L 308.304 53.667 313.735 53.667 C 316.723 53.667,319.167 53.628,319.167 53.581 C 319.167 53.533,319.311 52.577,319.488 51.456 C 319.665 50.334,319.854 49.117,319.908 48.750 C 319.961 48.383,320.264 46.508,320.580 44.583 C 321.221 40.679,321.300 40.175,321.320 39.875 C 321.327 39.760,321.396 39.667,321.472 39.667 C 321.549 39.667,321.615 39.760,321.620 39.875 C 321.627 40.041,322.161 42.639,322.587 44.583 C 322.627 44.767,322.781 45.517,322.928 46.250 C 323.075 46.983,323.340 48.258,323.517 49.083 C 323.694 49.908,323.873 50.771,323.915 51.000 C 323.957 51.229,324.113 51.923,324.263 52.542 L 324.536 53.667 330.268 53.667 C 334.443 53.667,336.000 53.615,336.000 53.477 C 336.000 53.373,335.768 52.491,335.485 51.519 C 335.202 50.546,334.834 49.262,334.667 48.667 C 334.500 48.071,334.050 46.533,333.666 45.250 C 333.283 43.967,332.832 42.429,332.664 41.833 C 332.497 41.237,332.119 39.918,331.825 38.901 L 331.289 37.052 331.769 36.265 C 332.034 35.832,332.325 35.349,332.417 35.191 C 332.508 35.033,332.865 34.521,333.208 34.054 C 333.552 33.587,333.833 33.156,333.833 33.096 C 333.833 33.035,333.911 32.895,334.006 32.785 C 334.101 32.674,334.488 32.096,334.866 31.500 C 335.243 30.904,336.164 29.479,336.911 28.333 C 339.118 24.949,339.234 24.767,339.445 24.375 L 339.647 24.000 334.176 24.000 L 328.705 24.000 328.439 24.406 C 328.108 24.911,327.601 25.808,326.972 27.000 C 326.706 27.504,326.422 28.029,326.340 28.167 C 325.880 28.943,323.796 32.749,322.782 34.667 C 322.419 35.354,322.086 35.954,322.043 36.000 C 321.941 36.109,322.093 34.977,322.579 32.000 C 322.796 30.671,323.020 29.246,323.077 28.833 C 323.134 28.421,323.325 27.221,323.500 26.167 C 323.676 25.113,323.859 23.950,323.908 23.583 C 323.957 23.217,324.040 22.654,324.092 22.333 C 324.195 21.698,324.536 19.533,325.327 14.500 C 325.607 12.713,325.877 11.025,325.926 10.750 C 325.975 10.475,326.057 9.950,326.108 9.583 C 326.159 9.217,326.258 8.598,326.329 8.208 L 326.457 7.500 321.062 7.500 C 318.094 7.500,315.666 7.519,315.666 7.542 M222.444 11.875 C 222.388 12.173,222.184 13.092,221.990 13.917 C 221.796 14.742,221.615 15.567,221.588 15.750 C 221.561 15.933,221.457 16.383,221.356 16.750 C 221.153 17.497,220.801 19.000,219.916 22.917 C 219.203 26.076,218.990 26.993,218.418 29.381 C 218.181 30.370,217.922 31.495,217.841 31.881 C 217.662 32.739,217.573 33.132,217.266 34.417 C 217.135 34.967,216.788 36.467,216.496 37.750 C 215.540 41.938,215.319 42.902,215.084 43.917 C 214.956 44.467,214.730 45.479,214.583 46.167 C 214.436 46.854,214.243 47.679,214.154 48.000 C 214.066 48.321,213.767 49.596,213.491 50.833 C 213.214 52.071,212.948 53.215,212.900 53.375 C 212.816 53.648,213.133 53.667,217.960 53.667 L 223.110 53.667 223.407 52.125 C 223.570 51.277,223.737 50.396,223.777 50.167 C 223.843 49.796,224.210 47.812,224.920 44.000 C 225.628 40.196,227.544 30.264,228.425 25.833 L 228.971 23.083 228.993 25.917 C 229.005 27.475,229.045 29.275,229.081 29.917 C 229.118 30.558,229.200 35.321,229.264 40.500 C 229.328 45.679,229.393 50.179,229.409 50.500 C 229.425 50.821,229.452 51.666,229.469 52.378 L 229.500 53.673 233.518 53.628 L 237.536 53.583 237.998 52.167 C 238.253 51.387,238.890 49.400,239.414 47.750 C 239.938 46.100,240.538 44.225,240.749 43.583 C 240.960 42.942,241.559 41.067,242.080 39.417 C 242.601 37.767,243.200 35.892,243.411 35.250 C 243.622 34.608,244.184 32.846,244.659 31.333 C 245.602 28.337,246.666 25.017,247.063 23.833 L 247.314 23.083 247.248 23.750 C 247.211 24.117,247.062 25.354,246.917 26.500 C 246.773 27.646,246.585 29.146,246.500 29.833 C 246.416 30.521,246.196 32.283,246.012 33.750 C 245.827 35.217,245.634 36.829,245.581 37.333 C 245.529 37.837,245.417 38.737,245.334 39.333 C 245.164 40.544,244.956 42.210,244.574 45.417 C 244.432 46.608,244.287 47.808,244.251 48.083 C 244.216 48.358,244.101 49.258,243.996 50.083 C 243.891 50.908,243.749 52.014,243.680 52.541 C 243.517 53.779,243.010 53.667,248.759 53.667 L 253.795 53.667 253.895 52.958 C 253.949 52.569,254.035 51.688,254.086 51.000 C 254.168 49.874,254.338 47.905,254.595 45.083 C 254.645 44.533,254.717 43.613,254.756 43.038 C 254.794 42.463,254.976 40.325,255.159 38.288 C 255.342 36.250,255.537 34.021,255.590 33.333 C 255.644 32.646,255.718 31.746,255.755 31.333 C 256.067 27.856,256.364 24.408,256.503 22.667 C 256.594 21.521,256.703 20.246,256.746 19.833 C 256.789 19.421,256.905 18.033,257.004 16.750 C 257.103 15.467,257.255 13.823,257.342 13.098 C 257.429 12.374,257.500 11.679,257.500 11.555 C 257.500 11.369,256.301 11.337,250.559 11.373 L 243.619 11.417 243.132 12.917 C 242.864 13.742,242.614 14.567,242.576 14.750 C 242.538 14.933,242.438 15.233,242.354 15.417 C 242.208 15.734,240.966 19.566,240.896 19.917 C 240.877 20.008,240.491 21.208,240.038 22.583 C 239.584 23.958,238.747 26.546,238.176 28.333 C 237.606 30.121,237.014 31.958,236.861 32.417 C 236.595 33.214,236.581 32.778,236.540 22.292 L 236.498 11.333 229.521 11.333 L 222.544 11.333 222.444 11.875 M372.761 15.918 C 372.700 16.239,372.615 16.783,372.572 17.126 C 372.528 17.469,372.343 18.688,372.160 19.833 C 371.977 20.979,371.788 22.179,371.741 22.500 C 371.694 22.821,371.614 23.290,371.564 23.542 L 371.474 24.000 369.675 24.000 L 367.876 24.000 367.777 24.625 C 367.722 24.969,367.632 25.550,367.576 25.917 C 367.521 26.283,367.292 27.708,367.067 29.083 C 366.842 30.458,366.614 31.977,366.560 32.458 L 366.461 33.333 368.238 33.333 L 370.015 33.333 369.928 33.875 C 369.880 34.173,369.571 36.142,369.241 38.250 C 368.911 40.358,368.424 43.433,368.158 45.083 C 367.892 46.733,367.630 48.383,367.577 48.750 C 367.524 49.117,367.375 50.054,367.245 50.833 C 367.115 51.612,366.970 52.569,366.923 52.958 L 366.836 53.667 372.252 53.667 C 377.288 53.667,377.668 53.646,377.692 53.375 C 377.721 53.046,377.720 53.054,377.907 51.917 C 377.982 51.458,378.064 50.933,378.090 50.750 C 378.115 50.567,378.253 49.742,378.397 48.917 C 378.541 48.092,378.701 47.117,378.753 46.750 C 378.805 46.383,378.915 45.708,378.998 45.250 C 379.139 44.470,379.250 43.732,379.436 42.333 C 379.478 42.012,379.582 41.412,379.666 41.000 C 379.750 40.587,380.064 38.694,380.364 36.792 L 380.909 33.333 382.871 33.333 C 384.742 33.333,384.833 33.317,384.833 32.990 C 384.833 32.800,385.019 31.507,385.246 30.115 C 385.473 28.722,385.701 27.283,385.754 26.917 C 385.807 26.550,385.921 25.842,386.008 25.344 C 386.095 24.846,386.167 24.342,386.167 24.225 C 386.167 24.066,385.681 23.998,384.281 23.964 L 382.396 23.917 382.698 22.083 C 383.013 20.175,383.303 18.226,383.443 17.083 C 383.488 16.717,383.588 16.173,383.665 15.875 L 383.806 15.333 378.338 15.333 L 372.870 15.333 372.761 15.918 M268.524 23.428 C 264.093 24.736,260.014 30.617,258.937 37.250 C 257.943 43.375,258.279 48.273,259.892 51.167 C 260.322 51.938,262.278 53.833,262.645 53.833 C 262.804 53.833,263.005 53.896,263.092 53.972 C 264.696 55.376,269.057 54.353,271.891 51.908 C 272.724 51.189,273.327 50.769,273.277 50.943 C 273.228 51.112,273.139 51.794,273.079 52.458 L 272.971 53.667 278.319 53.667 C 282.475 53.667,283.671 53.620,283.688 53.458 C 283.743 52.917,283.815 52.436,284.131 50.500 C 284.319 49.354,284.521 48.054,284.582 47.610 C 284.642 47.166,284.715 46.679,284.744 46.527 C 284.834 46.052,285.324 43.112,285.415 42.500 C 285.462 42.179,285.617 41.167,285.759 40.250 C 286.059 38.311,286.193 37.464,286.924 32.917 C 287.144 31.542,287.368 30.117,287.421 29.750 C 287.474 29.383,287.660 28.221,287.836 27.167 C 288.011 26.113,288.186 24.969,288.225 24.625 L 288.297 24.000 282.925 24.000 L 277.554 24.000 277.333 25.417 C 277.073 27.090,277.117 27.074,276.167 25.839 C 274.392 23.534,271.382 22.584,268.524 23.428 M308.623 23.431 C 306.435 23.988,304.585 25.042,302.851 26.719 L 301.784 27.750 301.888 27.000 C 301.946 26.587,302.026 26.088,302.067 25.890 C 302.108 25.692,302.193 25.186,302.256 24.765 L 302.371 24.000 297.287 24.000 L 292.203 24.000 292.104 24.392 C 292.050 24.608,291.963 25.076,291.910 25.434 C 291.857 25.791,291.673 26.946,291.502 28.000 C 291.331 29.054,291.148 30.254,291.095 30.667 C 291.043 31.079,290.815 32.542,290.590 33.917 C 290.365 35.292,290.134 36.717,290.077 37.083 C 289.877 38.371,289.812 38.763,289.558 40.250 C 289.417 41.075,289.271 42.047,289.234 42.411 C 289.197 42.774,289.133 43.187,289.092 43.328 C 289.050 43.468,288.972 43.921,288.918 44.333 C 288.863 44.746,288.751 45.496,288.668 46.000 C 288.585 46.504,288.470 47.217,288.413 47.583 C 288.356 47.950,288.240 48.681,288.155 49.208 C 287.726 51.867,287.657 52.303,287.560 52.958 L 287.455 53.667 292.977 53.667 L 298.500 53.667 298.500 53.175 C 298.500 52.904,298.571 52.323,298.659 51.883 C 298.746 51.443,298.854 50.783,298.898 50.417 C 298.976 49.777,299.263 47.948,299.394 47.250 C 299.429 47.067,299.509 46.542,299.573 46.083 C 299.705 45.127,299.686 45.249,300.236 41.833 C 301.233 35.646,302.655 34.018,307.327 33.715 L 308.820 33.618 308.980 32.767 C 309.135 31.950,309.546 29.418,309.837 27.500 C 310.088 25.844,310.181 25.262,310.341 24.344 C 310.429 23.846,310.500 23.382,310.500 23.312 C 310.500 23.144,309.503 23.207,308.623 23.431 M349.667 23.429 C 349.162 23.549,348.478 23.717,348.146 23.802 C 344.239 24.798,340.206 29.283,338.822 34.172 C 336.786 41.357,337.996 48.734,341.706 51.750 C 342.156 52.117,342.613 52.496,342.721 52.594 C 342.944 52.796,344.725 53.656,345.142 53.763 C 349.267 54.821,353.118 54.747,356.000 53.553 C 356.137 53.496,356.332 53.432,356.432 53.410 C 356.532 53.388,356.925 53.175,357.304 52.935 C 357.683 52.696,358.060 52.500,358.142 52.500 C 358.223 52.500,358.918 51.881,359.687 51.125 C 361.642 49.200,362.754 46.890,363.096 44.042 L 363.201 43.167 358.623 43.167 L 354.045 43.167 353.938 43.952 C 353.593 46.464,350.080 47.448,348.598 45.446 C 348.221 44.937,348.092 42.160,348.383 40.792 L 348.515 40.167 356.320 40.167 L 364.126 40.167 364.334 38.542 C 365.472 29.648,362.782 24.878,355.800 23.410 C 354.385 23.112,350.949 23.123,349.667 23.429 M354.535 30.525 C 355.267 31.046,355.500 31.763,355.500 33.495 L 355.500 35.000 352.427 35.000 C 348.854 35.000,349.072 35.130,349.667 33.359 C 350.606 30.564,352.798 29.288,354.535 30.525 M274.493 32.954 C 275.783 34.339,275.321 40.350,273.703 43.226 C 272.040 46.183,269.785 45.525,269.545 42.012 C 269.168 36.522,272.365 30.670,274.493 32.954 " stroke="none" fill="#84a40c" fill-rule="evenodd"></path><path id="path3" d="M53.042 0.282 C 53.202 0.323,53.465 0.323,53.625 0.282 C 53.785 0.240,53.654 0.205,53.333 0.205 C 53.012 0.205,52.881 0.240,53.042 0.282 M36.083 2.256 C 35.667 2.457,35.653 2.480,36.000 2.395 C 36.472 2.279,37.003 2.009,36.750 2.013 C 36.658 2.014,36.358 2.123,36.083 2.256 M33.333 3.417 C 33.104 3.548,32.992 3.655,33.083 3.655 C 33.175 3.655,33.438 3.548,33.667 3.417 C 33.896 3.286,34.008 3.178,33.917 3.178 C 33.825 3.178,33.563 3.286,33.333 3.417 M46.042 4.282 C 46.202 4.323,46.465 4.323,46.625 4.282 C 46.785 4.240,46.654 4.205,46.333 4.205 C 46.012 4.205,45.881 4.240,46.042 4.282 M51.208 4.282 C 51.369 4.323,51.631 4.323,51.792 4.282 C 51.952 4.240,51.821 4.205,51.500 4.205 C 51.179 4.205,51.048 4.240,51.208 4.282 M67.583 5.253 C 67.767 5.402,68.067 5.598,68.250 5.688 L 68.583 5.852 68.250 5.580 C 68.067 5.431,67.767 5.235,67.583 5.145 L 67.250 4.982 67.583 5.253 M68.667 5.901 C 68.667 5.946,69.004 6.216,69.417 6.500 C 69.829 6.784,70.167 6.979,70.167 6.933 C 70.167 6.887,69.829 6.617,69.417 6.333 C 69.004 6.050,68.667 5.855,68.667 5.901 M26.994 7.345 L 26.417 7.857 27.042 7.409 C 27.594 7.013,27.774 6.833,27.619 6.833 C 27.592 6.833,27.311 7.064,26.994 7.345 M71.000 7.548 C 71.000 7.591,71.428 7.992,71.952 8.438 C 72.475 8.885,72.850 9.163,72.784 9.057 C 72.641 8.824,71.000 7.436,71.000 7.548 M25.750 8.278 C 24.316 9.523,23.794 10.016,23.852 10.070 C 23.888 10.103,24.479 9.613,25.167 8.982 C 26.372 7.875,26.776 7.387,25.750 8.278 M74.333 10.583 C 74.924 11.179,75.445 11.667,75.490 11.667 C 75.536 11.667,75.091 11.179,74.500 10.583 C 73.909 9.987,73.389 9.500,73.343 9.500 C 73.297 9.500,73.743 9.987,74.333 10.583 M22.750 11.058 C 20.884 13.196,19.380 15.035,20.472 13.842 C 21.969 12.207,23.029 10.973,22.977 10.925 C 22.944 10.893,22.841 10.953,22.750 11.058 M75.667 11.908 C 75.667 12.004,77.340 14.052,77.715 14.417 C 77.810 14.508,77.731 14.358,77.541 14.083 C 77.081 13.420,75.667 11.779,75.667 11.908 M26.246 13.542 L 25.083 14.750 26.292 13.588 C 27.414 12.508,27.576 12.333,27.454 12.333 C 27.428 12.333,26.885 12.877,26.246 13.542 M19.333 15.250 C 19.050 15.662,18.855 16.000,18.901 16.000 C 18.946 16.000,19.216 15.662,19.500 15.250 C 19.784 14.838,19.979 14.500,19.933 14.500 C 19.887 14.500,19.617 14.838,19.333 15.250 M78.166 15.125 C 78.384 15.423,78.589 15.667,78.621 15.667 C 78.747 15.667,78.334 15.042,78.061 14.820 C 77.881 14.673,77.921 14.790,78.166 15.125 M18.564 16.375 C 17.990 17.348,17.952 17.431,18.245 17.083 C 18.583 16.680,18.875 16.167,18.766 16.167 C 18.722 16.167,18.631 16.260,18.564 16.375 M17.000 19.000 C 16.813 19.367,16.697 19.667,16.743 19.667 C 16.789 19.667,16.980 19.367,17.167 19.000 C 17.354 18.633,17.469 18.333,17.423 18.333 C 17.378 18.333,17.187 18.633,17.000 19.000 M53.500 33.083 C 53.500 33.313,53.565 33.500,53.644 33.500 C 53.723 33.500,53.751 33.313,53.707 33.083 C 53.664 32.854,53.599 32.667,53.564 32.667 C 53.529 32.667,53.500 32.854,53.500 33.083 M367.381 33.457 C 367.912 33.490,368.737 33.490,369.214 33.456 C 369.692 33.422,369.258 33.395,368.250 33.396 C 367.242 33.396,366.851 33.424,367.381 33.457 M381.798 33.457 C 382.375 33.490,383.275 33.489,383.798 33.456 C 384.322 33.423,383.850 33.397,382.750 33.397 C 381.650 33.397,381.222 33.424,381.798 33.457 M64.709 35.417 C 64.711 35.783,64.745 35.914,64.785 35.706 C 64.824 35.499,64.823 35.199,64.781 35.040 C 64.739 34.880,64.707 35.050,64.709 35.417 M80.720 36.000 C 80.720 36.596,80.750 36.840,80.787 36.542 C 80.824 36.244,80.824 35.756,80.787 35.458 C 80.750 35.160,80.720 35.404,80.720 36.000 M12.872 37.500 C 12.872 37.821,12.906 37.952,12.948 37.792 C 12.990 37.631,12.990 37.369,12.948 37.208 C 12.906 37.048,12.872 37.179,12.872 37.500 M34.275 46.792 C 34.233 46.860,35.184 46.897,36.391 46.873 C 40.377 46.795,40.793 46.732,37.552 46.699 C 35.792 46.681,34.318 46.723,34.275 46.792 M18.145 54.917 C 18.235 55.100,18.431 55.400,18.580 55.583 L 18.852 55.917 18.688 55.583 C 18.598 55.400,18.402 55.100,18.253 54.917 L 17.982 54.583 18.145 54.917 M19.333 56.750 C 19.617 57.163,19.887 57.500,19.933 57.500 C 19.979 57.500,19.784 57.163,19.500 56.750 C 19.216 56.337,18.946 56.000,18.901 56.000 C 18.855 56.000,19.050 56.337,19.333 56.750 M26.250 58.500 C 26.887 59.142,27.445 59.667,27.491 59.667 C 27.537 59.667,27.053 59.142,26.417 58.500 C 25.780 57.858,25.221 57.333,25.176 57.333 C 25.130 57.333,25.613 57.858,26.250 58.500 M77.160 58.208 C 76.850 58.598,76.728 58.811,76.889 58.681 C 77.193 58.438,77.907 57.500,77.789 57.500 C 77.753 57.500,77.469 57.819,77.160 58.208 M20.498 58.331 C 20.788 58.696,21.111 59.049,21.218 59.115 C 21.324 59.181,21.122 58.882,20.769 58.451 C 20.416 58.019,20.092 57.667,20.049 57.667 C 20.007 57.667,20.209 57.966,20.498 58.331 M76.085 59.498 C 75.822 59.772,75.640 60.023,75.679 60.056 C 75.718 60.088,75.964 59.864,76.225 59.557 C 76.814 58.865,76.727 58.828,76.085 59.498 M21.917 59.997 C 22.283 60.409,22.602 60.777,22.625 60.817 C 22.648 60.856,22.703 60.853,22.747 60.809 C 22.790 60.765,22.472 60.396,22.038 59.990 L 21.250 59.250 21.917 59.997 M74.329 61.458 L 73.250 62.583 74.375 61.505 C 74.994 60.912,75.500 60.405,75.500 60.380 C 75.500 60.257,75.330 60.413,74.329 61.458 M24.266 62.426 C 25.696 63.685,26.312 64.116,25.250 63.115 C 24.608 62.510,24.015 62.012,23.932 62.008 C 23.849 62.003,23.999 62.192,24.266 62.426 M71.833 63.690 L 70.917 64.537 71.791 63.837 C 72.558 63.223,72.964 62.822,72.802 62.839 C 72.773 62.842,72.337 63.225,71.833 63.690 M26.560 64.295 C 26.692 64.509,27.667 65.230,27.667 65.114 C 27.667 65.073,27.391 64.830,27.055 64.573 C 26.718 64.316,26.496 64.191,26.560 64.295 M69.375 65.517 C 68.985 65.792,68.667 66.055,68.667 66.100 C 68.667 66.146,69.004 65.950,69.417 65.667 C 69.829 65.383,70.167 65.117,70.167 65.075 C 70.167 64.961,70.135 64.978,69.375 65.517 M67.875 66.519 C 67.307 66.883,67.123 67.127,67.625 66.851 C 68.007 66.641,68.606 66.178,68.500 66.175 C 68.454 66.173,68.173 66.328,67.875 66.519 M51.208 67.782 C 51.369 67.823,51.631 67.823,51.792 67.782 C 51.952 67.740,51.821 67.705,51.500 67.705 C 51.179 67.705,51.048 67.740,51.208 67.782 " stroke="none" fill="#7f7c18" fill-rule="evenodd"></path><path id="path4" d="M13.019 32.361 C 13.009 32.514,12.957 32.777,12.904 32.945 C 12.813 33.234,12.818 33.235,12.999 32.953 C 13.103 32.790,13.155 32.527,13.114 32.370 C 13.046 32.112,13.037 32.111,13.019 32.361 M64.744 44.583 C 64.744 49.350,64.766 51.276,64.792 48.863 C 64.818 46.451,64.818 42.551,64.792 40.197 C 64.765 37.843,64.744 39.817,64.744 44.583 M23.333 61.417 C 23.644 61.737,23.936 62.000,23.982 62.000 C 24.028 62.000,23.811 61.737,23.500 61.417 C 23.189 61.096,22.897 60.833,22.851 60.833 C 22.805 60.833,23.022 61.096,23.333 61.417 M46.875 71.948 C 47.035 71.990,47.298 71.990,47.458 71.948 C 47.619 71.906,47.487 71.872,47.167 71.872 C 46.846 71.872,46.715 71.906,46.875 71.948 " stroke="none" fill="#84a414" fill-rule="evenodd"></path></g></svg>